<svg xmlns="http://www.w3.org/2000/svg" width="1440" height="560" preserveAspectRatio="none"><g mask="url(&quot;#a&quot;)" fill="none"><path d="M211.27 289.19a42.81 42.81 0 1 0-16.13 84.08zM27.64 80.33h46.44v43.45H27.64z" stroke="#d3b714"/><path d="M1190.75 284.34a21.03 21.03 0 1 0 42.06 0 21.03 21.03 0 1 0-42.06 0zM110.35 442.51h34.27v32.1h-34.27z" stroke="#037b0b"/><path d="M173.69 226.11a11.52 11.52 0 1 0 5.43 22.39zM180.58 198.95a55.02 55.02 0 1 0-110-2.85zM835.81 397.48a39.35 39.35 0 1 0 78.7 0 39.35 39.35 0 1 0-78.7 0zM666.03 325.26h2.5v2.5h-2.5z" stroke="#e73635"/><path d="M961.57 305.25a5.97 5.97 0 1 0 11.94 0 5.97 5.97 0 1 0-11.94 0z" fill="#e73635"/><path d="M-10.03 269.45a54.87 54.87 0 1 0 109.74 0 54.87 54.87 0 1 0-109.74 0z" stroke="#d3b714"/><path d="M1206.89 36.02h50.7V67.1h-50.7z" stroke="#e73635"/><path d="M1090.63 62.47a44.3 44.3 0 1 0 88.6 0 44.3 44.3 0 1 0-88.6 0z" fill="#d3b714"/><path d="M935.07 489.08h52.2v18.12h-52.2z" fill="#037b0b"/><path d="M1226.12 167.02h45.83v13.14h-45.83z" stroke="#d3b714"/><path d="M977.81 557.81h41.05v47.71h-41.05zM794.56 77.1a53.67 53.67 0 1 0 107.34 0 53.67 53.67 0 1 0-107.34 0z" fill="#e73635"/><path d="M371.18 32.97h52.03V87.4h-52.03z" stroke="#e73635"/><path d="M1434.86 279.59h28.97v35.69h-28.97z" stroke="#d3b714"/><path d="M398.02 454.88h9.92v9.92h-9.92z" fill="#037b0b"/><path d="M615.18 551.12a16.82 16.82 0 1 0 33.64-.56z" fill="#d3b714"/><path d="M91.47 385.63h32.56v32.56H91.47z" stroke="#d3b714"/><path d="M335.36 180.05h51.53v51.53h-51.53z" fill="#d3b714"/><path d="M1288.45 299.59a24.26 24.26 0 1 0 48.52 0 24.26 24.26 0 1 0-48.52 0z" fill="#e73635"/><path d="M1165.33 315.43h2.83v2.83h-2.83z" fill="#d3b714"/><path d="M831.78 309.22h46.55v46.55h-46.55zM298.56 89.89a25.13 25.13 0 1 0 50.26 0 25.13 25.13 0 1 0-50.26 0z" stroke="#d3b714"/><path d="M48.59 320.35a52.65 52.65 0 1 0-89.13-56.07z" stroke="#e73635"/><path d="M458.21 460.25a2.11 2.11 0 1 0 4.22 0 2.11 2.11 0 1 0-4.22 0z" stroke="#037b0b"/><path d="M999.06 449.93a41.86 41.86 0 1 0 83.72 0 41.86 41.86 0 1 0-83.72 0z" fill="#e73635"/><path d="M1340.94 548.97h45.59v45.59h-45.59zM107.86 104.93a51.48 51.48 0 1 0 102.96 0 51.48 51.48 0 1 0-102.96 0zM941.6 418.36a.52.52 0 1 0 1.04 0 .52.52 0 1 0-1.04 0z" stroke="#037b0b"/><path d="M897.14 330.61h12.72v29.23h-12.72z" fill="#d3b714"/></g><defs><mask id="a"><path fill="#fff" d="M0 0h1440v560H0z"/></mask></defs></svg>