<svg xmlns="http://www.w3.org/2000/svg" width="600" height="580" preserveAspectRatio="none"><g mask="url(&quot;#a&quot;)" fill="none"><path d="M610 580H0v-97.8q39.8 9.8 30 49.6-2.56-32.56 30-35.12 8.12-21.88 30-13.77 7.97-22.03 30-14.05 17.28-12.72 30 4.56 44.93-5.07 50 39.85 25.66-4.34 30 21.33 4.06-45.94 50-41.87 11.33-38.67 50-27.33 15.83-14.17 30 1.65 54.03 4.03 50 58.05-2.61-32.61 30-35.22 4.81-25.19 30-20.38 31.88 1.88 30 33.77 30 0 30 30-3.65-53.65 50-57.31 17.06-12.95 30 4.11z" fill="rgba(97, 167, 224, 1)"/><path d="M650 580H0v18.6q22.24-27.76 50-5.53 3.45-26.55 30-23.11 6.27-23.73 30-17.46 14.4-35.6 50-21.19 41.68-8.32 50 33.36 44.16-5.84 50 38.32 2.07-27.93 30-25.86 1.1-48.9 50-47.8 43.24-6.76 50 36.48 20.27-9.73 30 10.53 21.5-8.5 30 13 11.83-38.17 50-26.34 15.35-34.65 50-19.3 15.15-34.85 50-19.7 54.63 4.63 50 59.25z" fill="rgba(194, 210, 223, 1)"/></g><defs><mask id="a"><path fill="#fff" d="M0 0h600v580H0z"/></mask></defs></svg>