<svg xmlns="http://www.w3.org/2000/svg" width="1440" height="580" preserveAspectRatio="none"><g mask="url(&quot;#a&quot;)" fill="none"><path d="M1464 580H0V454.54q61.03-10.97 72 50.06 65.84-54.16 120 11.68 13.75-58.25 72-44.5 6.57-65.43 72-58.87 42.46-29.54 72 12.92 80.01-39.99 120 40.02 84.1-35.9 120 48.21 19.44-52.56 72-33.12 35.9-84.09 120-48.19 49.11-70.89 120-21.78 63.18-8.82 72 54.36 82.56-37.45 120 45.11 18.61-101.39 120-82.78 53.47-66.53 120-13.06 52.02-19.97 72 32.05z" fill="rgba(97, 167, 224, 1)"/><path d="M1464 580H0v-24.9q40.83-79.17 120-38.33 25.27-46.73 72-21.45 56.97-15.03 72 41.95 78.93-41.07 120 37.86 27.79-44.21 72-16.42 45.76-74.24 120-28.48 50.44-69.56 120-19.12 76.72-43.28 120 33.43 51.31-20.69 72 30.61 53.85-18.15 72 35.7 2-69.99 72-67.99 40.99-79 120-38.01 95.99-24 120 71.99 69.13-50.86 120 18.27 17.78-54.23 72-36.45z" fill="rgba(194, 210, 223, 1)"/></g><defs><mask id="a"><path fill="#fff" d="M0 0h1440v580H0z"/></mask></defs></svg>