<svg width="180.677" height="199.019" viewBox="0 0 47.804 52.657" xmlns="http://www.w3.org/2000/svg"><path d="m1875.347 1995.853-38.481-477.214c-13.732-170.338-163.133-318.233-331.982-328.646-143.687-8.86-256.964 84.595-279.083 217.616 32.184-62.919 98.582-102.758 178.31-97.841 118.874 7.33 223.989 111.387 233.665 231.32l35.654 442.313-120.072-7.404 232.208 152.12 209.863-124.86-120.082-7.404" style="fill:#ff7f2a;fill-opacity:1;fill-rule:evenodd;stroke:none" transform="matrix(.06093 .00109 .00117 -.05644 -76.12 118.168)"/><path d="m1220.307 1509.393 46.943 466.122 203.953 8.508-47.968-476.343c-5.76-57.2 36.045-102.057 92.896-99.685 12.808.534 25.368 3.44 37.147 8.265-40.415-42.461-95.81-70.584-154.3-73.024-100.483-4.192-176.379 68.748-178.67 166.157" style="fill:#c8ab37;fill-opacity:1;fill-rule:evenodd;stroke:none" transform="matrix(.06093 .00109 .00117 -.05644 -76.12 118.168)"/></svg>