<?xml version="1.0" encoding="UTF-8"?>
<svg width="192.84mm" height="58.829mm" shape-rendering="crispEdges" version="1.1" viewBox="0 0 192.84 58.829" xmlns="http://www.w3.org/2000/svg">
<defs>
<style>.cls-1{fill:#ecf2fa;}.cls-2{fill:#8bbacc;}.cls-3,.cls-4{fill:#274b5b;}.cls-10,.cls-11,.cls-16,.cls-4{opacity:0.2;}.cls-10,.cls-11,.cls-17,.cls-19,.cls-20,.cls-4,.cls-5,.cls-6,.cls-9{isolation:isolate;}.cls-12,.cls-19,.cls-20,.cls-5{fill:#fff;}.cls-5{opacity:0.3;}.cls-13,.cls-6{opacity:0.4;}.cls-6{fill:url(#a);}.cls-7{fill:#26c8bc;}.cls-8{fill:#f6df9e;}.cls-9{fill:#1b5a6e;}.cls-19,.cls-9{opacity:0.8;}.cls-10{fill:#a7594e;}.cls-11{fill:#f08778;}.cls-14{fill:#426270;}.cls-15{opacity:0.9;}.cls-17{fill:#5c7869;opacity:0.6;}.cls-18{fill:#94e0f7;}.cls-20{opacity:0.15;}</style>
<linearGradient id="a" x2="755.89" y1="574.82" y2="574.82" gradientTransform="matrix(.090858 0 0 -.049733 62.518 133.12)" gradientUnits="userSpaceOnUse">
<stop stop-color="#c3f6ee" offset="0"/>
<stop stop-color="#c6ebfd" offset=".38"/>
</linearGradient>
</defs>
<g transform="translate(-149.45 -181.31)">
<text transform="matrix(.26981 0 0 .26458 13.993 30.615)" fill="#000000" font-family="sans-serif" font-size="40px" style="line-height:1.25;shape-inside:url(#rect13285);white-space:pre" xml:space="preserve"/>
<text transform="matrix(.26981 0 0 .26458 13.993 30.615)" fill="#000000" font-family="sans-serif" font-size="40px" style="line-height:1.25;shape-inside:url(#rect14853);white-space:pre" xml:space="preserve"/>
<g transform="matrix(3.0993 0 0 2.7779 -80.775 -106.03)">
<g transform="matrix(1.1005 0 0 1.216 -3.016 -32.241)">
<text transform="scale(1.005 .99506)" x="118.58997" y="130.65451" fill="#000000" font-family="sans-serif" font-size="3.1486px" stroke-width=".078714" style="line-height:1.25" xml:space="preserve"><tspan x="118.58997" y="130.65451" stroke-width=".078714"/></text>
<text x="77.823624" y="125.02494" fill="#0000ff" font-family="sans-serif" font-size="10.583px" stroke-width=".26458" style="line-height:1.25" xml:space="preserve"><tspan x="77.823624" y="125.02494" fill="#000000" font-family="'Cooper Black'" font-size="10.583px" stroke="#000000" stroke-width=".26458" style="font-variant-caps:normal;font-variant-east-asian:normal;font-variant-ligatures:normal;font-variant-numeric:normal">SKILLUP</tspan></text>
<g transform="translate(4.2873 2.9663)">
<g transform="translate(27.93 12.555)">
<g transform="translate(-22.402 -1.908)">
<path class="cls-1" d="m62.632 110.39h2.6162a0.54252 0.63184 0 0 1-0.54252 0.63183h-1.5311a0.54252 0.63184 0 0 1-0.54252-0.63183z" stroke-width=".022144"/>
<path class="cls-2" d="m65.259 110.45a0.54252 0.63184 0 0 1-0.28604 0.51808 0.52385 0.61009 0 0 1-0.10075 0.0421l0.0018-6e-3a0.22366 0.26048 0 0 0-0.20519-0.34675l-1.9743-0.0657a0.5335 0.62132 0 0 1-0.02421-0.14339 0.30779 0.35845 0 0 0 0.04371 4e-3h0.68985v0.0562h0.14466v-0.0562h0.36934c-0.0039 0.01-0.0082 0.0196-0.01211 0.0294l0.54786-4.8e-4v-0.0282h0.76577a0.29732 0.34627 0 0 0 0.0396-3e-3z" stroke-width=".022144"/>
<rect class="cls-3" x="62.982" y="110.48" width=".04822" height=".50542" stroke-width=".022144"/>
<rect class="cls-4" x="63.018" y="110.48" width=".04822" height=".43516" stroke-width=".022144"/>
<rect class="cls-4" x="63.319" y="110.48" width=".04822" height=".43516" stroke-width=".022144"/>
<rect class="cls-4" x="63.922" y="110.48" width=".04822" height=".43516" stroke-width=".022144"/>
<rect class="cls-4" x="64.223" y="110.48" width=".04822" height=".43516" stroke-width=".022144"/>
<rect class="cls-4" x="64.525" y="110.48" width=".04822" height=".43516" stroke-width=".022144"/>
<rect class="cls-5" x="64.428" y="110.48" width=".04822" height=".43516" stroke-width=".022144"/>
<rect class="cls-5" x="64.139" y="110.48" width=".04822" height=".43516" stroke-width=".022144"/>
<rect class="cls-5" x="63.838" y="110.48" width=".04822" height=".43516" stroke-width=".022144"/>
<rect class="cls-5" x="63.536" y="110.48" width=".04822" height=".43516" stroke-width=".022144"/>
<rect class="cls-5" x="63.235" y="110.48" width=".04822" height=".43516" stroke-width=".022144"/>
<rect class="cls-5" x="62.933" y="110.48" width=".04822" height=".43516" stroke-width=".022144"/>
<rect class="cls-4" x="63.621" y="110.48" width=".04822" height=".43516" stroke-width=".022144"/>
<rect class="cls-3" x="63.281" y="110.48" width=".04822" height=".50542" stroke-width=".022144"/>
<rect class="cls-3" x="63.581" y="110.48" width=".04822" height=".50542" stroke-width=".022144"/>
<rect class="cls-3" x="63.88" y="110.48" width=".04822" height=".50542" stroke-width=".022144"/>
<rect class="cls-3" x="64.479" y="110.48" width=".04822" height=".50542" stroke-width=".022144"/>
<rect class="cls-3" x="64.778" y="110.48" width=".04822" height=".50542" stroke-width=".022144"/>
<rect class="cls-3" x="64.179" y="110.48" width=".04822" height=".50542" stroke-width=".022144"/>
<path class="cls-7" d="m62.174 109.79s-0.98492 1.4286-1.1185 3.4318a0.07551 0.087941 0 0 1-0.14712 0.0208c-0.33754-1.1965-1.0543-4.6558 1.1815-6.7662" fill="#0ff" stroke-width=".022144"/>
<path class="cls-8" d="m61.041 113.34a0.07469 0.086985 0 0 0 0.02934 0.0461 0.075305 0.087702 0 0 1-0.11368-0.0461c-0.33754-1.1965-1.0543-4.6558 1.1815-6.7662l0.0021 0.0796c-2.1356 2.1168-1.4324 5.5052-1.0992 6.6866z" stroke-width=".022144"/>
<path class="cls-9" d="m60.821 112.88c-0.0057-0.55537 0.11593-1.1373 0.27537-1.6584 0.08208-0.26669 0.17318-0.51737 0.26285-0.74081a4.0771 4.7483 0 0 0 0.38124-2.2341c-0.01765-0.44544-0.03201-0.94513-0.03201-1.3901 0.17667-0.25474 0.11655-0.27768 0.35785-0.50542l0.08433 3.3136s-0.98492 1.4286-1.1185 3.4318a0.073048 0.085073 0 0 1-0.02873 0.0631" stroke-width=".022144"/>
<path class="cls-3" d="m60.986 109.19a0.042269 0.049228 0 1 1 0.04227-0.0492 0.042269 0.049228 0 0 1-0.04227 0.0492zm0-0.0703a0.018057 0.021029 0 1 0 0.01806 0.021 0.018057 0.021029 0 0 0-0.01806-0.021z" stroke-width=".022144"/>
<path class="cls-4" d="m60.986 109.23a0.078383 0.091286 0 1 1 0.07838-0.0913 0.078383 0.091286 0 0 1-0.07838 0.0913zm0-0.12642a0.030163 0.035129 0 1 0 0.03016 0.0351 0.030163 0.035129 0 0 0-0.03016-0.0351z" stroke-width=".022144"/>
<path class="cls-3" d="m66.906 109.19a0.042269 0.049228 0 1 1 0.04227-0.0492 0.042269 0.049228 0 0 1-0.04227 0.0492zm0-0.0703a0.018057 0.021029 0 1 0 0.01806 0.021 0.018057 0.021029 0 0 0-0.01806-0.021z" stroke-width=".022144"/>
<path class="cls-4" d="m66.906 109.23a0.078383 0.091286 0 1 1 0.07838-0.0913 0.078383 0.091286 0 0 1-0.07838 0.0913zm0-0.12642a0.030163 0.035129 0 1 0 0.03016 0.0351 0.030163 0.035129 0 0 0-0.03016-0.0351z" stroke-width=".022144"/>
<path class="cls-3" d="m66.87 109.19a0.042269 0.049228 0 1 1 0.04227-0.0492 0.042269 0.049228 0 0 1-0.04227 0.0492zm0-0.0703a0.018057 0.021029 0 1 0 0.01806 0.021 0.018057 0.021029 0 0 0-0.01806-0.021z" stroke-width=".022144"/>
<path class="cls-4" d="m66.87 109.23a0.078383 0.091286 0 1 1 0.07838-0.0913 0.078383 0.091286 0 0 1-0.07838 0.0913zm0-0.12642a0.030163 0.035129 0 1 0 0.03016 0.0351 0.030163 0.035129 0 0 0-0.03016-0.0351z" stroke-width=".022144"/>
<rect class="cls-3" x="61.185" y="107.75" width=".04822" height="4.6054" stroke-width=".022144"/>
<rect class="cls-4" x="61.234" y="107.64" width=".04822" height="4.7177" stroke-width=".022144"/>
<rect class="cls-5" x="61.137" y="107.75" width=".04822" height="4.6054" stroke-width=".022144"/>
<rect class="cls-3" x="61.463" y="107.15" width=".04822" height="4.1562" stroke-width=".022144"/>
<rect class="cls-4" x="61.511" y="107.15" width=".04822" height="4.1562" stroke-width=".022144"/>
<rect class="cls-5" x="61.414" y="107.15" width=".04822" height="4.1562" stroke-width=".022144"/>
<path class="cls-12" d="m66.785 113.38a0.07469 0.086985 0 0 1-0.02934 0.0461 0.075305 0.087702 0 0 0 0.11368-0.0461c0.33754-1.1965 1.0543-4.6558-1.1815-6.7662l-0.0021 0.0796c2.1356 2.1158 1.4326 5.5049 1.0992 6.6866z" stroke-width=".022144"/>
<path class="cls-7" d="m65.662 109.93s0.98492 1.4286 1.1185 3.4318a0.07551 0.087941 0 0 0 0.14712 0.0208c0.33733-1.1965 1.0543-4.6558-1.1811-6.7662" fill="#0ff" stroke-width=".022144"/>
<path class="cls-9" d="m67.016 113.02c0.0057-0.55536-0.11593-1.1372-0.27537-1.6584-0.08208-0.26669-0.17318-0.51737-0.26285-0.7408a4.0771 4.7483 0 0 1-0.38206-2.2329c0.01765-0.44544 0.03201-0.94512 0.03201-1.3901-0.17667-0.25474-0.11655-0.27768-0.35785-0.50542l-0.08454 3.3136s0.98492 1.4286 1.1185 3.4318a0.073048 0.085073 0 0 0 0.02873 0.0631" stroke-width=".022144"/>
<rect class="cls-3" x="66.599" y="107.74" width=".04822" height="4.7459" stroke-width=".022144"/>
<rect class="cls-4" x="66.55" y="107.73" width=".04822" height="4.3667" stroke-width=".022144"/>
<rect class="cls-5" x="66.647" y="107.88" width=".04822" height="4.6054" stroke-width=".022144"/>
<rect class="cls-3" x="66.321" y="107.28" width=".04822" height="4.1562" stroke-width=".022144"/>
<rect class="cls-4" x="66.273" y="107.28" width=".04822" height="4.0157" stroke-width=".022144"/>
<path class="cls-7" d="m64.131 98.189a0.26818 0.31233 0 0 0-0.40176 0c-0.57884 0.76303-2.2097 3.217-2.2097 6.647 0 3.3573 0.62522 4.865 0.86898 5.325 0.05212 0.0982 0.16559 0.16154 0.28932 0.16154h2.5048c0.12435 0 0.23761-0.0628 0.28932-0.16154 0.24377-0.46002 0.8696-1.9677 0.8696-5.325 0-3.4299-1.6315-5.8839-2.2105-6.647z" stroke-width=".022144"/>
<rect class="cls-3" x="63.898" y="101.03" width=".04822" height="9.267" stroke-width=".022144"/>
<rect class="cls-4" x="63.85" y="101.03" width=".04822" height="9.267" stroke-width=".022144"/>
<rect class="cls-5" x="63.946" y="101.03" width=".04822" height="9.267" stroke-width=".022144"/>
<path class="cls-1" d="m65.526 100.94h-3.242a10.627 12.376 0 0 1 0.69416-1.6052q0.03468-0.06739 0.06874-0.13167c0.46209-0.80557 0.81604-1.2443 0.81604-1.2443s0.49246 0.61009 1.0729 1.7129l0.0084 0.0162c0.19062 0.36705 0.38904 0.78573 0.58172 1.252z" fill="#0ff" stroke-width=".022144"/>
<path class="cls-12" d="m62.771 100.58a0.060326 0.070257 0 0 1-0.05294-0.10372c0.05868-0.12569 0.12312-0.25211 0.18734-0.37422 0.06156-0.11949 0.12476-0.24112 0.18139-0.36156a0.060326 0.070257 0 0 1 0.10588 0.0671c-0.05766 0.1233-0.12188 0.24709-0.18467 0.36681-0.06279 0.11973-0.12722 0.24567-0.18467 0.36874a0.060326 0.070257 0 0 1-0.05232 0.0368z" stroke-width=".022144"/>
<g class="cls-13" transform="matrix(.020519 0 0 .023897 56.698 97.962)">
<path class="cls-14" d="m381.81 231.06c3.78-6.12 6.46-11.31 6.87-11.13s-1.76 5.7-5.6 11.91-7.79 10.63-8.1 10.38 3.08-5.02 6.83-11.16z"/>
<ellipse class="cls-14" transform="rotate(-59.33 387.95 236.2)" cx="387.95" cy="236.2" rx="8.69" ry=".75"/>
<path class="cls-14" d="m383.3 235.13c5.52 2.23 10.13 3.77 10 4.18s-5-0.51-10.58-2.79-9.77-5-9.57-5.32 4.62 1.72 10.15 3.93z"/>
<path class="cls-14" d="m388.52 233.63c5 2.35 9.23 3.83 9.11 4.24s-4.62-0.49-9.74-2.88-8.71-5.29-8.48-5.59 4.11 1.92 9.11 4.23z"/>
</g>
<path class="cls-8" d="m63.153 110.39h-0.43972c-0.12435 0-0.23761-0.0631-0.28932-0.16179-0.24356-0.46121-0.86878-1.9724-0.86878-5.3379 0-3.2956 1.4979-5.6925 2.134-6.5592-0.56982 0.78621-1.8036 2.8676-1.8036 6.1475l0.7233-1.182c-0.01498 0.0459-1.4757 4.9945 0.54417 7.0934z" stroke-width=".022144"/>
<path class="cls-12" d="m62.858 110.33h-0.12065c-0.12434 0-0.23761-0.0631-0.28932-0.16178-0.24356-0.46122-0.86878-1.9725-0.86878-5.3379 0-3.2956 1.4979-5.6925 2.1328-6.5588-0.32359 0.44664-0.86344 1.3143-1.2681 2.5809-0.4151 1.0847-0.74443 2.432-0.74443 3.9765 0 3.3656 0.62522 4.8769 0.86878 5.3379 0.05232 0.10013 0.16559 0.16322 0.28973 0.16322z" stroke-width=".022144"/>
<path class="cls-9" d="m64.634 110.32h0.43972c0.12434 0 0.23761-0.0628 0.28932-0.16131 0.24356-0.45977 0.86878-1.9667 0.86878-5.3226 0-3.2856-1.4979-5.676-2.134-6.5404 0.56982 0.78382 1.9364 2.8588 1.9364 6.1298l-0.62604-1.1786c0.01416 0.0459 1.2459 4.9801-0.77419 7.073z" fill="#1a1a1a" stroke-width=".022144"/>
<g class="cls-15" transform="matrix(.020519 0 0 .023897 56.698 97.962)">
<path class="cls-12" d="m277.61 171.19a117.93 117.93 0 0 1 3.61-11.6 86.92 86.92 0 0 1 4-9.11c2.59-5 4.83-7.85 5.76-7.46s0.48 3.91-0.79 9.28c-0.63 2.69-1.43 5.88-2.35 9.35l-2.97 11.35-2.87 11.43c-0.86 3.53-1.67 6.67-2.39 9.34-1.45 5.33-2.69 8.64-3.73 8.54s-1.65-3.63-1.52-9.3a86.85 86.85 0 0 1 0.86-9.89 117.92 117.92 0 0 1 2.39-11.93z"/>
</g>
<g class="cls-15" transform="matrix(.020519 0 0 .023897 56.698 97.962)">
<ellipse class="cls-12" transform="rotate(-79.77 271.34 216.19)" cx="271.34" cy="216.19" rx="8.81" ry="3.75"/>
</g>
<g class="cls-16" transform="matrix(.020519 0 0 .023897 56.698 97.962)">
<path class="cls-14" d="m334.35 36.72c4.87-3.53 9.4-6.6 12.72-8.71s5.46-3.33 5.58-3.14-1.81 1.67-5 4l-12.44 9-12.41 9.13c-3.2 2.3-5.22 3.68-5.35 3.53s1.66-1.83 4.7-4.35 7.33-5.91 12.2-9.46z"/>
<path class="cls-14" d="m336.15 42.44c10.71-4.11 19.34-7.56 19.51-7.17 0.08 0.19-2 1.3-5.39 2.88s-8.23 3.63-13.58 5.69-10.31 3.75-13.91 4.84-5.88 1.65-5.94 1.46c-0.15-0.4 8.61-3.59 19.31-7.7z"/>
</g>
<path class="cls-3" d="m63.711 102.64a0.042269 0.049228 0 1 1 0.04227-0.0492 0.042269 0.049228 0 0 1-0.04227 0.0492zm0-0.0703a0.018057 0.021029 0 1 0 0.01806 0.021 0.018057 0.021029 0 0 0-0.01806-0.021z" stroke-width=".022144"/>
<path class="cls-4" d="m63.711 102.68a0.078383 0.091286 0 1 1 0.07838-0.0913 0.078383 0.091286 0 0 1-0.07838 0.0913zm0-0.12642a0.030163 0.035129 0 1 0 0.03016 0.0351 0.030163 0.035129 0 0 0-0.03016-0.0356z" stroke-width=".022144"/>
<path class="cls-3" d="m63.711 101.67a0.042269 0.049228 0 1 1 0.04227-0.0492 0.042269 0.049228 0 0 1-0.04227 0.0492zm0-0.0703a0.018057 0.021029 0 1 0 0.01806 0.021 0.018057 0.021029 0 0 0-0.01806-0.0208z" stroke-width=".022144"/>
<path class="cls-4" d="m63.711 101.72a0.078383 0.091286 0 1 1 0.07838-0.0913 0.078383 0.091286 0 0 1-0.07838 0.0913zm0-0.12641a0.030163 0.035129 0 1 0 0.03016 0.0351 0.030163 0.035129 0 0 0-0.03016-0.0351z" stroke-width=".022144"/>
<path class="cls-3" d="m64.133 101.98a0.042269 0.049228 0 1 1 0.04227-0.0492 0.042269 0.049228 0 0 1-0.04227 0.0492zm0-0.0703a0.018057 0.021029 0 1 0 0.01806 0.021 0.018057 0.021029 0 0 0-0.01806-0.021z" stroke-width=".022144"/>
<path class="cls-4" d="m64.133 102.02a0.078383 0.091286 0 1 1 0.07838-0.0913 0.078383 0.091286 0 0 1-0.07838 0.0913zm0-0.12642a0.030163 0.035129 0 1 0 0.03016 0.0351 0.030163 0.035129 0 0 0-0.03016-0.0351z" stroke-width=".022144"/>
<path class="cls-3" d="m64.133 105.48a0.042269 0.049228 0 1 1 0.04227-0.0492 0.042269 0.049228 0 0 1-0.04227 0.0492zm0-0.0703a0.018057 0.021029 0 1 0 0.01806 0.021 0.018057 0.021029 0 0 0-0.01806-0.0208z" stroke-width=".022144"/>
<path class="cls-4" d="m64.133 105.52a0.078383 0.091286 0 1 1 0.07838-0.0913 0.078383 0.091286 0 0 1-0.07838 0.0913zm0-0.12642a0.030163 0.035129 0 1 0 0.03016 0.0351 0.030163 0.035129 0 0 0-0.03016-0.0354z" stroke-width=".022144"/>
<path class="cls-3" d="m64.146 106.19a0.042269 0.049228 0 1 1 0.04227-0.0492 0.042269 0.049228 0 0 1-0.04227 0.0492zm0-0.0703a0.018057 0.021029 0 1 0 0.01806 0.021 0.018057 0.021029 0 0 0-0.01806-0.021z" stroke-width=".022144"/>
<path class="cls-4" d="m64.146 106.24a0.078383 0.091286 0 1 1 0.07838-0.0913 0.078383 0.091286 0 0 1-0.07838 0.0913zm0-0.12641a0.030163 0.035129 0 1 0 0.03016 0.0351 0.030163 0.035129 0 0 0-0.03016-0.0344z" stroke-width=".022144"/>
<path class="cls-3" d="m63.674 105.28a0.042269 0.049228 0 1 1 0.04227-0.0492 0.042269 0.049228 0 0 1-0.04227 0.0492zm0-0.0703a0.018057 0.021029 0 1 0 0.01806 0.021 0.018057 0.021029 0 0 0-0.01806-0.021z" stroke-width=".022144"/>
<path class="cls-4" d="m63.674 105.32a0.078383 0.091286 0 1 1 0.07838-0.0913 0.078383 0.091286 0 0 1-0.07838 0.0913zm0-0.12642a0.030163 0.035129 0 1 0 0.03016 0.0351 0.030163 0.035129 0 0 0-0.03016-0.0351z" stroke-width=".022144"/>
<path class="cls-3" d="m63.674 106a0.042269 0.049228 0 1 1 0.04227-0.0492 0.042269 0.049228 0 0 1-0.04227 0.0492zm0-0.0703a0.018057 0.021029 0 1 0 0.01806 0.021 0.018057 0.021029 0 0 0-0.01806-0.0208z" stroke-width=".022144"/>
<path class="cls-4" d="m63.674 106.04a0.078383 0.091286 0 1 1 0.07838-0.0913 0.078383 0.091286 0 0 1-0.07838 0.0913zm0-0.12641a0.030163 0.035129 0 1 0 0.03016 0.0351 0.030163 0.035129 0 0 0-0.03016-0.0342z" stroke-width=".022144"/>
<path class="cls-3" d="m63.711 103.6a0.042269 0.049228 0 1 1 0.04227-0.0492 0.042269 0.049228 0 0 1-0.04227 0.0492zm0-0.0703a0.018057 0.021029 0 1 0 0.01806 0.021 0.018057 0.021029 0 0 0-0.01806-0.021z" stroke-width=".022144"/>
<path class="cls-4" d="m63.711 103.64a0.078383 0.091286 0 1 1 0.07838-0.0913 0.078383 0.091286 0 0 1-0.07838 0.0913zm0-0.12642a0.030163 0.035129 0 1 0 0.03016 0.0351 0.030163 0.035129 0 0 0-0.03016-0.0351z" stroke-width=".022144"/>
<path class="cls-3" d="m64.675 100.66a0.042269 0.049228 0 1 1 0.04227-0.0492 0.042269 0.049228 0 0 1-0.04227 0.0492zm0-0.0703a0.018057 0.021029 0 1 0 0.01806 0.021 0.018057 0.021029 0 0 0-0.01806-0.021z" stroke-width=".022144"/>
<path class="cls-4" d="m64.675 100.7a0.078383 0.091286 0 1 1 0.07838-0.0913 0.078383 0.091286 0 0 1-0.07838 0.0913zm0-0.12642a0.030163 0.035129 0 1 0 0.03016 0.0351 0.030163 0.035129 0 0 0-0.03016-0.0351z" stroke-width=".022144"/>
<path class="cls-3" d="m63.156 100.66a0.042269 0.049228 0 1 1 0.04227-0.0492 0.042269 0.049228 0 0 1-0.04227 0.0492zm0-0.0703a0.018057 0.021029 0 1 0 0.01806 0.021 0.018057 0.021029 0 0 0-0.01806-0.021z" stroke-width=".022144"/>
<path class="cls-4" d="m63.156 100.7a0.078383 0.091286 0 1 1 0.07838-0.0913 0.078383 0.091286 0 0 1-0.07838 0.0913zm0-0.12642a0.030163 0.035129 0 1 0 0.03016 0.0351 0.030163 0.035129 0 0 0-0.03016-0.0351z" stroke-width=".022144"/>
<path class="cls-3" d="m63.916 100.66a0.042269 0.049228 0 1 1 0.04227-0.0492 0.042269 0.049228 0 0 1-0.04227 0.0492zm0-0.0703a0.018057 0.021029 0 1 0 0.01806 0.021 0.018057 0.021029 0 0 0-0.01806-0.021z" stroke-width=".022144"/>
<path class="cls-4" d="m63.916 100.7a0.078383 0.091286 0 1 1 0.07838-0.0913 0.078383 0.091286 0 0 1-0.07838 0.0913zm0-0.12642a0.030163 0.035129 0 1 0 0.03016 0.0351 0.030163 0.035129 0 0 0-0.03016-0.0351z" stroke-width=".022144"/>
<path class="cls-3" d="m63.711 107.07a0.042269 0.049228 0 1 1 0.04227-0.0492 0.042269 0.049228 0 0 1-0.04227 0.0492zm0-0.0703a0.018057 0.021029 0 1 0 0.01806 0.021 0.018057 0.021029 0 0 0-0.01806-0.0208z" stroke-width=".022144"/>
<path class="cls-4" d="m63.711 107.11a0.078383 0.091286 0 1 1 0.07838-0.0913 0.078383 0.091286 0 0 1-0.07838 0.0913zm0-0.12642a0.030163 0.035129 0 1 0 0.03016 0.0351 0.030163 0.035129 0 0 0-0.03016-0.0351z" stroke-width=".022144"/>
<path class="cls-3" d="m63.711 108.09a0.042269 0.049228 0 1 1 0.04227-0.0492 0.042269 0.049228 0 0 1-0.04227 0.0492zm0-0.0702a0.018057 0.021029 0 1 0 0.01806 0.021 0.018057 0.021029 0 0 0-0.01806-0.0206z" stroke-width=".022144"/>
<path class="cls-4" d="m63.711 108.14a0.078383 0.091286 0 1 1 0.07838-0.0913 0.078383 0.091286 0 0 1-0.07838 0.0913zm0-0.12641a0.030163 0.035129 0 1 0 0.03016 0.0351 0.030163 0.035129 0 0 0-0.03016-0.0351z" stroke-width=".022144"/>
<path class="cls-3" d="m63.711 109.12a0.042269 0.049228 0 1 1 0.04227-0.0492 0.042269 0.049228 0 0 1-0.04227 0.0492zm0-0.0703a0.018057 0.021029 0 1 0 0.01806 0.021 0.018057 0.021029 0 0 0-0.01806-0.021z" stroke-width=".022144"/>
<path class="cls-4" d="m63.711 109.17a0.078383 0.091286 0 1 1 0.07838-0.0913 0.078383 0.091286 0 0 1-0.07838 0.0913zm0-0.12641a0.030163 0.035129 0 1 0 0.03016 0.0351 0.030163 0.035129 0 0 0-0.03016-0.0351z" stroke-width=".022144"/>
<path class="cls-3" d="m63.711 110.15a0.042269 0.049228 0 1 1 0.04227-0.0492 0.042269 0.049228 0 0 1-0.04227 0.0492zm0-0.0703a0.018057 0.021029 0 1 0 0.01806 0.021 0.018057 0.021029 0 0 0-0.01806-0.021z" stroke-width=".022144"/>
<path class="cls-4" d="m63.711 110.2a0.078383 0.091286 0 1 1 0.07838-0.0913 0.078383 0.091286 0 0 1-0.07838 0.0913zm0-0.12642a0.030163 0.035129 0 1 0 0.03016 0.0351 0.030163 0.035129 0 0 0-0.03016-0.0361z" stroke-width=".022144"/>
<ellipse class="cls-18" cx="64" cy="103.39" rx="1.0188" ry="1.1865" fill="#0ff" stroke-width=".022144"/>
<path class="cls-4" d="m63.988 104.51a0.88622 1.0321 0 1 1 0.88622-1.0321 0.88704 1.0331 0 0 1-0.88622 1.0321zm0-1.9937a0.82589 0.96185 0 1 0 0.82589 0.96185 0.82671 0.96281 0 0 0-0.82589-0.96209z" stroke-width=".022144"/>
<path class="cls-12" d="m64.341 102.34-0.58131 2.2738a1.0136 1.1805 0 0 1-0.40176-0.24877l0.53042-2.0728a1.0223 1.1905 0 0 1 0.45265 0.0478z" stroke-width=".022144"/>
<path class="cls-12" d="m64.665 102.54-0.5378 2.1029a0.996 1.16 0 0 1-0.1026 6e-3 1.0159 1.1831 0 0 1-0.12312-9e-3l0.5731-2.2423a1.019 1.1867 0 0 1 0.19042 0.14195z" stroke-width=".022144"/>
<path class="cls-19" d="m63.271 103.73a0.024213 0.028198 0 0 1-0.0238-0.0239 0.9765 1.1373 0 0 1 0.1188-0.74559c0.0632-0.12617 0.13748-0.20193 0.22099-0.22463a0.024213 0.028198 0 1 1 0.01108 0.0547c-0.06997 0.0191-0.13399 0.086-0.19021 0.19834a0.92828 1.0811 0 0 0-0.11286 0.70855 0.024007 0.027959 0 0 1-0.02052 0.032z" stroke-width=".022144"/>
<path class="cls-3" d="m64.688 103.55a0.042269 0.049228 0 1 1 0.04227-0.0492 0.042269 0.049228 0 0 1-0.04227 0.0492zm0-0.0703a0.018057 0.021029 0 1 0 0.01806 0.021 0.018057 0.021029 0 0 0-0.01806-0.0201z" stroke-width=".022144"/>
<path class="cls-4" d="m64.688 103.6a0.078383 0.091286 0 1 1 0.07838-0.0913 0.078383 0.091286 0 0 1-0.07838 0.0913zm0-0.12641a0.030163 0.035129 0 1 0 0.03016 0.0351 0.030163 0.035129 0 0 0-0.03016-0.0351z" stroke-width=".022144"/>
<path class="cls-1" d="m63.342 110.27v-2.0489a2.3583 2.7465 0 0 1 0.62768-1.8692 2.3597 2.7482 0 0 1 0.61557 1.8549v2.0606" fill="#0ff" stroke-width=".022144"/>
<path class="cls-12" d="m64.055 106.62a2.2965 2.6746 0 0 0-0.55402 1.743v2.0136h-0.14466v-2.0136a2.2961 2.6741 0 0 1 0.62768-1.8372q0.03632 0.0464 0.071 0.0941z" stroke-width=".022144"/>
<path class="cls-2" d="m64.465 108.33v2.025l-0.49902 1e-3c0.46435-1.0868 0.31702-2.5512 0.22284-3.2978a2.2957 2.6736 0 0 1 0.27619 1.2716z" stroke-width=".022144"/>
<g class="cls-13" transform="matrix(.020519 0 0 .023897 56.698 97.962)">
<path class="cls-14" d="m300.14 362.68c3.78-6.12 6.46-11.31 6.87-11.13s-1.76 5.7-5.6 11.91-7.79 10.63-8.1 10.38 3.08-5.03 6.83-11.16z"/>
<ellipse class="cls-14" transform="rotate(-59.56 305.49 366.18)" cx="305.49" cy="366.18" rx="8.69" ry=".75"/>
<path class="cls-14" d="m301.63 366.74c5.52 2.23 10.13 3.77 10 4.18s-5-0.51-10.58-2.79-9.77-5-9.57-5.32 4.62 1.72 10.15 3.93z"/>
<path class="cls-14" d="m306.85 365.25c5 2.35 9.23 3.83 9.11 4.24s-4.62-0.49-9.74-2.88-8.71-5.29-8.48-5.59 4.11 1.92 9.11 4.23z"/>
</g>
<path class="cls-3" d="m63.723 107.73a0.042269 0.049228 0 1 1 0.04227-0.0492 0.042269 0.049228 0 0 1-0.04227 0.0492zm0-0.0703a0.018057 0.021029 0 1 0 0.01806 0.021 0.018057 0.021029 0 0 0-0.01806-0.0208z" stroke-width=".022144"/>
<path class="cls-4" d="m63.723 107.77a0.078383 0.091286 0 1 1 0.07838-0.0913 0.078383 0.091286 0 0 1-0.07838 0.0913zm0-0.12641a0.030163 0.035129 0 1 0 0.03016 0.0351 0.030163 0.035129 0 0 0-0.03016-0.0356z" stroke-width=".022144"/>
<path class="cls-3" d="m63.723 109.78a0.042269 0.049228 0 1 1 0.04227-0.0492 0.042269 0.049228 0 0 1-0.04227 0.0492zm0-0.0703a0.018057 0.021029 0 1 0 0.01806 0.021 0.018057 0.021029 0 0 0-0.01806-0.021z" stroke-width=".022144"/>
<path class="cls-4" d="m63.723 109.82a0.078383 0.091286 0 1 1 0.07838-0.0913 0.078383 0.091286 0 0 1-0.07838 0.0913zm0-0.12642a0.030163 0.035129 0 1 0 0.03016 0.0351 0.030163 0.035129 0 0 0-0.03016-0.0351z" stroke-width=".022144"/>
<path class="cls-3" d="m63.723 108.75a0.042269 0.049228 0 1 1 0.04227-0.0492 0.042269 0.049228 0 0 1-0.04227 0.0492zm0-0.0703a0.018057 0.021029 0 1 0 0.01806 0.021 0.018057 0.021029 0 0 0-0.01806-0.021z" stroke-width=".022144"/>
<path class="cls-4" d="m63.723 108.79a0.078383 0.091286 0 1 1 0.07838-0.0913 0.078383 0.091286 0 0 1-0.07838 0.0913zm0-0.12642a0.030163 0.035129 0 1 0 0.03016 0.0351 0.030163 0.035129 0 0 0-0.03016-0.0351z" stroke-width=".022144"/>
<path class="cls-3" d="m64.109 107.73a0.042269 0.049228 0 1 1 0.04227-0.0492 0.042269 0.049228 0 0 1-0.04227 0.0492zm0-0.0703a0.018057 0.021029 0 1 0 0.01806 0.021 0.018057 0.021029 0 0 0-0.01806-0.0208z" stroke-width=".022144"/>
<path class="cls-4" d="m64.109 107.77a0.078383 0.091286 0 1 1 0.07838-0.0913 0.078383 0.091286 0 0 1-0.07838 0.0913zm0-0.12641a0.030163 0.035129 0 1 0 0.03016 0.0351 0.030163 0.035129 0 0 0-0.03016-0.0356z" stroke-width=".022144"/>
<path class="cls-3" d="m64.109 109.78a0.042269 0.049228 0 1 1 0.04227-0.0492 0.042269 0.049228 0 0 1-0.04227 0.0492zm0-0.0703a0.018057 0.021029 0 1 0 0.01806 0.021 0.018057 0.021029 0 0 0-0.01806-0.021z" stroke-width=".022144"/>
<path class="cls-4" d="m64.109 109.82a0.078383 0.091286 0 1 1 0.07838-0.0913 0.078383 0.091286 0 0 1-0.07838 0.0913zm0-0.12642a0.030163 0.035129 0 1 0 0.03016 0.0351 0.030163 0.035129 0 0 0-0.03016-0.0351z" stroke-width=".022144"/>
<path class="cls-3" d="m64.109 108.75a0.042269 0.049228 0 1 1 0.04227-0.0492 0.042269 0.049228 0 0 1-0.04227 0.0492zm0-0.0703a0.018057 0.021029 0 1 0 0.01806 0.021 0.018057 0.021029 0 0 0-0.01806-0.021z" stroke-width=".022144"/>
<path class="cls-4" d="m64.109 108.79a0.078383 0.091286 0 1 1 0.07838-0.0913 0.078383 0.091286 0 0 1-0.07838 0.0913zm0-0.12642a0.030163 0.035129 0 1 0 0.03016 0.0351 0.030163 0.035129 0 0 0-0.03016-0.0351z" stroke-width=".022144"/>
<rect class="cls-3" x="63.898" y="106.49" width=".04822" height="3.8051" stroke-width=".022144"/>
<rect class="cls-4" x="63.862" y="106.63" width=".04822" height="3.6225" stroke-width=".022144"/>
<rect class="cls-19" x="63.958" y="106.63" width=".04822" height="3.6084" stroke-width=".022144"/>
<path class="cls-3" d="m64.682 111.14h-1.5311a0.63363 0.73794 0 0 1-0.63302-0.73722v-0.10539h2.7972v0.10539a0.63363 0.73794 0 0 1-0.63301 0.73722zm-1.9741-0.63184a0.45286 0.52741 0 0 0 0.44301 0.42131h1.5311a0.45286 0.52741 0 0 0 0.44301-0.42131z" stroke-width=".022144"/>
<path class="cls-20" d="m65.202 101.76a0.32646 0.3802 0 0 1 0.39376 0.28031l0.07756 0.37423a0.32646 0.3802 0 0 1-0.24069 0.45858 0.32646 0.3802 0 0 1-0.39376-0.28031l-0.07756-0.37423a0.32646 0.3802 0 0 1 0.24069-0.45858z" stroke-width=".022144"/>
<path class="cls-20" d="m64.912 101.59a0.32646 0.3802 0 0 1 0.45327 0.10156 0.32646 0.3802 0 0 1-0.08721 0.52789 0.32646 0.3802 0 0 1-0.45327-0.10156 0.32646 0.3802 0 0 1 0.08721-0.52789z" stroke-width=".022144"/>
<g class="cls-13" transform="matrix(.020519 0 0 .023897 56.698 97.962)">
<path class="cls-14" d="m413.54 272.78c3.78-6.12 6.46-11.31 6.87-11.13s-1.76 5.7-5.6 11.91-7.79 10.63-8.1 10.38 3.08-5.02 6.83-11.16z"/>
<ellipse class="cls-14" transform="rotate(-59.56 418.88 276.28)" cx="418.88" cy="276.29" rx="8.69" ry=".75"/>
<path class="cls-14" d="m415 276.85c5.52 2.23 10.13 3.77 10 4.18s-5-0.51-10.58-2.79-9.77-5-9.57-5.32 4.65 1.71 10.15 3.93z"/>
<path class="cls-14" d="m420.25 275.35c5 2.35 9.23 3.83 9.11 4.24s-4.62-0.49-9.74-2.88-8.71-5.29-8.48-5.59 4.11 1.88 9.11 4.23z"/>
</g>
<g class="cls-13" transform="matrix(.020519 0 0 .023897 56.698 97.962)">
<path class="cls-14" d="m365.95 91.81c3.78-6.12 6.46-11.31 6.87-11.13s-1.76 5.7-5.6 11.91-7.79 10.63-8.1 10.38 3.07-5.02 6.83-11.16z"/>
<ellipse class="cls-14" transform="rotate(-59.56 371.29 95.329)" cx="371.29" cy="95.33" rx="8.69" ry=".75"/>
<path class="cls-14" d="m367.43 95.88c5.52 2.23 10.13 3.77 10 4.18s-5-0.51-10.58-2.79-9.77-5-9.57-5.32 4.63 1.71 10.15 3.93z"/>
<path class="cls-14" d="m372.66 94.38c5 2.35 9.23 3.83 9.11 4.24s-4.62-0.49-9.74-2.88-8.71-5.29-8.48-5.59 4.11 1.92 9.11 4.23z"/>
</g>
<rect class="cls-2" x="62.325" y="100.82" width="3.0141" height=".070257" stroke-width=".022144"/>
<polygon class="cls-3" transform="matrix(.020519 0 0 .023897 56.698 97.962)" points="433.17 121.71 434.17 130.52 270.07 130.52 272.07 121.71"/>
<path class="cls-3" d="m63.384 110.3h-0.18077v-2.0136a2.3771 2.7685 0 0 1 0.6523-1.9098l0.06628-0.0815 0.06566 0.082a2.3788 2.7704 0 0 1 0.64061 1.8948v2.025h-0.18078v-2.0246a2.1978 2.5596 0 0 0-0.52693-1.6656 2.1955 2.557 0 0 0-0.53678 1.6795z" stroke-width=".022144"/>
<path class="cls-3" d="m66.906 109.16a0.042269 0.049228 0 1 1 0.04227-0.0492 0.042269 0.049228 0 0 1-0.04227 0.0492zm0-0.0703a0.018057 0.021029 0 1 0 0.01806 0.021 0.018057 0.021029 0 0 0-0.01806-0.0208z" stroke-width=".022144"/>
<path class="cls-4" d="m66.906 109.2a0.078383 0.091286 0 1 1 0.07838-0.0913 0.078383 0.091286 0 0 1-0.07838 0.0913zm0-0.12641a0.030163 0.035129 0 1 0 0.03016 0.0351 0.030163 0.035129 0 0 0-0.03016-0.0351z" stroke-width=".022144"/>
</g>
</g>
</g>
<g transform="matrix(-.036424 6.4408e-5 -5.5296e-5 -.035067 75.45 128.99)">
<rect class="cls-5" transform="matrix(-27.455 -.050426 .043292 -28.517 1797 3293.4)" x="66.37" y="107.28" width=".04822" height="4.1562" stroke-width=".022144"/>
<path class="cls-3" transform="matrix(-27.455 -.050426 .043292 -28.517 1797 3293.4)" d="m66.857 113.45a0.17216 0.2005 0 0 1-0.02052-1e-3 0.16415 0.19118 0 0 1-0.14568-0.17708c-0.12927-1.9483-1.0892-3.3599-1.0988-3.374l0.14097-0.13191c0.01026 0.0148 0.25546 0.37279 0.51954 0.98312 0.237 0.54748 0.53206 1.4059 0.61229 2.4205 0.16415-0.60029 0.40217-1.7101 0.34718-2.92-0.06977-1.5332-0.58274-2.762-1.5223-3.6496l0.11388-0.1637a4.1496 4.8327 0 0 1 1.2012 1.8186c0.22468 0.59408 0.35519 1.2613 0.38802 1.9834 0.05909 1.3014-0.21176 2.4877-0.37858 3.0789a0.16415 0.19118 0 0 1-0.15718 0.13311z" stroke-width=".022144"/>
<path class="cls-3" transform="matrix(-27.455 -.050426 .043292 -28.517 1797 3293.4)" d="m60.968 113.44a0.16415 0.19118 0 0 1-0.15677-0.13311c-0.16703-0.59121-0.43788-1.7772-0.37878-3.0789 0.03283-0.72217 0.16415-1.3894 0.38802-1.9834a4.1496 4.8327 0 0 1 1.2012-1.8186l0.11388 0.1637c-0.94039 0.88777-1.4528 2.1156-1.5225 3.6496-0.05499 1.2099 0.18467 2.3197 0.34718 2.92 0.08023-1.0144 0.3753-1.873 0.61229-2.4205 0.26429-0.61032 0.50928-0.9683 0.51954-0.98312l0.14097 0.13191c-0.0037 5e-3 -0.24623 0.36085-0.50149 0.95158-0.23535 0.54485-0.53001 1.4073-0.59731 2.4224a0.16415 0.19118 0 0 1-0.14568 0.17708 0.17462 0.20336 0 0 1-0.02052 1e-3z" stroke-width=".022144"/>
<path class="cls-2" transform="matrix(-27.455 -.050426 .043292 -28.517 1797 3293.4)" d="m65.501 100.9-0.17728-0.0296c-0.29281-0.49873-1.1027-1.5165-2.2189-1.6568 0.02052-0.04493 0.1026-0.13669 0.12312-0.17947 0.16025-0.30684 0.30614-0.51307 0.42536-0.7095a0.34882 0.40625 0 0 1 0.56551-0.0086 9.4632 11.021 0 0 1 0.68616 1.23c0.0025 5e-3 0.02914 0.0108 0.0318 0.0162 0.17339 0.36706 0.49205 0.5936 0.56428 1.3378z" fill="#0ff" stroke-width=".022144"/>
<ellipse class="cls-17" transform="matrix(-27.455 -.050426 .043292 -28.517 1797 3293.4)" cx="63.988" cy="103.83" rx="1.0188" ry="1.1865" stroke-width=".022144"/>
<path class="cls-3" transform="matrix(-27.455 -.050426 .043292 -28.517 1797 3293.4)" d="m63.988 104.81a1.1454 1.3339 0 1 1 1.1454-1.3339 1.1466 1.3354 0 0 1-1.1454 1.3339zm0-2.373a0.89217 1.039 0 1 0 0.89217 1.039 0.8932 1.0402 0 0 0-0.89217-1.0388z" stroke-width=".022144"/>
<path class="cls-3" transform="matrix(-27.455 -.050426 .043292 -28.517 1797 3293.4)" d="m65.159 110.43h-2.5056c-0.15656 0-0.29691-0.081-0.36627-0.21148-0.26531-0.50184-0.88232-2.0289-0.88232-5.384 0-3.2882 1.4874-5.6958 2.127-6.5784a0.4902 0.5709 0 0 1 0.74936 0c0.63938 0.88252 2.127 3.2901 2.1264 6.5784 0 3.3544-0.61701 4.8826-0.88232 5.384-0.06833 0.13024-0.2093 0.21148-0.36627 0.21148zm-1.2531-12.166a0.30779 0.35845 0 0 0-0.19904 0.08483 0.31004 0.36108 0 0 0-0.03693 0.04301c-0.62665 0.86483-2.0843 3.2237-2.0843 6.4426 0 1.4388 0.1145 2.6922 0.34021 3.7256 0.18611 0.85168 0.40258 1.3354 0.51524 1.5478 0.03529 0.0667 0.12086 0.11136 0.21237 0.11136h2.5056c0.09213 0 0.17728-0.0447 0.21217-0.11112 0.11265-0.21292 0.32831-0.69683 0.51544-1.5483 0.22571-1.0333 0.34021-2.2867 0.34021-3.7255 0-3.2187-1.4569-5.5776-2.0839-6.4424a0.30779 0.35845 0 0 0-0.21032-0.12665q-0.01334-0.0012-0.02668-0.0012z" stroke-width=".022144"/>
<path class="st0" d="m18.61 54.89c-2.91-26.09 12.33-44.44 40.91-54.89-17.5 22.71 14.92 47.31 16.71 70.89 4.19-7.15 6.57-16.69 7.04-29.45 21.43 33.62 3.66 88.57-43.5 80.67-4.33-0.72-8.5-2.09-12.3-4.13-17.2-9.18-27.47-29.19-27.47-48.3 0-12.18 5.21-23.05 11.95-31.69 0.9 8.46 2.82 14.77 6.66 16.9z"/>
<path class="st1" d="m33.87 92.58c-4.86-12.55-4.19-32.82 9.42-39.93 0.1 23.3 23.05 26.27 18.8 51.14 3.92-4.44 5.9-11.54 6.25-17.15 6.22 14.24 1.34 25.63-7.53 31.43-26.97 17.64-50.19-18.12-34.75-37.72 0.47 4.38 5.83 11.14 7.81 12.23z"/>
</g>
</g>
</g>
</g>
<style type="text/css">.st0{fill-rule:evenodd;clip-rule:evenodd;fill:#EC6F59;} .st1{fill-rule:evenodd;clip-rule:evenodd;fill:#FAD15C;}</style>
</svg>
