<svg width="79" height="79" viewBox="0 0 79 79" fill="none" xmlns="http://www.w3.org/2000/svg">
<path fill-rule="evenodd" clip-rule="evenodd" d="M77 39.5C77 60.2107 60.2107 77 39.5 77C18.7893 77 2 60.2107 2 39.5C2 18.7893 18.7893 2 39.5 2C60.2107 2 77 18.7893 77 39.5ZM79 39.5C79 61.3152 61.3152 79 39.5 79C17.6848 79 0 61.3152 0 39.5C0 17.6848 17.6848 0 39.5 0C61.3152 0 79 17.6848 79 39.5ZM27 29.5C27 30.5066 26.5751 31.414 25.8948 32.0525C25.769 32.0183 25.6366 32 25.5 32C24.8665 32 24.3248 32.3927 24.1049 32.9479C23.9084 32.9822 23.7063 33 23.5 33C21.567 33 20 31.433 20 29.5C20 27.567 21.567 26 23.5 26C25.433 26 27 27.567 27 29.5ZM60 29.5C60 31.433 58.433 33 56.5 33C54.567 33 53 31.433 53 29.5C53 27.567 54.567 26 56.5 26C58.433 26 60 27.567 60 29.5ZM40.0579 51.0055C35.3843 50.9129 30.7872 51.9862 27.0492 54.0713C23.3133 56.1553 20.6144 59.1544 19.5256 62.6152C19.3598 63.142 19.6525 63.7035 20.1794 63.8692C20.7062 64.035 21.2676 63.7423 21.4334 63.2154C22.3352 60.3491 24.625 57.7137 28.0235 55.818C31.42 53.9234 35.6606 52.9188 40.0183 53.0051C44.3764 53.0915 48.528 54.2624 51.7655 56.2834C55.0036 58.3047 57.0779 61.0157 57.7555 63.9016C57.8817 64.4392 58.4199 64.7728 58.9576 64.6465C59.4952 64.5203 59.8288 63.9821 59.7025 63.4445C58.8784 59.934 56.4044 56.8215 52.8246 54.5868C49.2442 52.3517 44.7311 51.0981 40.0579 51.0055Z" fill="black"/>
</svg>
