<svg xml:space="preserve" width="365.432" height="124.376" xmlns="http://www.w3.org/2000/svg"><path d="m1875.347 1995.853-38.481-477.214c-13.732-170.338-163.133-318.233-331.982-328.646-143.687-8.86-256.964 84.595-279.083 217.616 32.184-62.919 98.582-102.758 178.31-97.841 118.874 7.33 223.989 111.387 233.665 231.32l35.654 442.313-120.072-7.404 232.208 152.12 209.863-124.86-120.082-7.404" style="fill:#ff7f2a;fill-opacity:1;fill-rule:evenodd;stroke:none" transform="matrix(.1333 .00257 .00257 -.1333 48.44 279.111)"/><path d="m1220.307 1509.393 46.943 466.122 203.953 8.508-47.968-476.343c-5.76-57.2 36.045-102.057 92.896-99.685 12.808.534 25.368 3.44 37.147 8.265-40.415-42.461-95.81-70.584-154.3-73.024-100.483-4.192-176.379 68.748-178.67 166.157" style="fill:#c8ab37;fill-opacity:1;fill-rule:evenodd;stroke:none" transform="matrix(.1333 .00257 .00257 -.1333 48.44 279.111)"/><text xml:space="preserve" style="font-style:normal;font-variant:normal;font-weight:700;font-stretch:normal;font-size:750.896px;line-height:1.25;font-family:Candara;-inkscape-font-specification:'Candara, Bold';font-variant-ligatures:normal;font-variant-caps:normal;font-variant-numeric:normal;font-variant-east-asian:normal;fill:#000;fill-opacity:1;stroke:none;stroke-width:18.7725" x="700.812" y="-1140.326" transform="matrix(.12225 0 0 .14542 -89.125 267.913)"><tspan style="font-style:normal;font-variant:normal;font-weight:700;font-stretch:normal;font-size:750.896px;font-family:Candara;-inkscape-font-specification:'Candara, Bold';font-variant-ligatures:normal;font-variant-caps:normal;font-variant-numeric:normal;font-variant-east-asian:normal;fill:#000;fill-opacity:1;stroke-width:18.7725" x="700.812" y="-1140.326">SKILL</tspan></text><text xml:space="preserve" style="font-style:normal;font-variant:normal;font-weight:700;font-stretch:normal;font-size:879.323px;line-height:1.25;font-family:Candara;-inkscape-font-specification:'Candara, Bold';font-variant-ligatures:normal;font-variant-caps:normal;font-variant-numeric:normal;font-variant-east-asian:normal;fill:#000;fill-opacity:1;stroke:none;stroke-width:21.9831" x="2845.136" y="-1262.239" transform="matrix(.13713 0 0 .12964 -89.125 267.913)"><tspan style="font-style:normal;font-variant:normal;font-weight:700;font-stretch:normal;font-size:879.323px;font-family:Candara;-inkscape-font-specification:'Candara, Bold';font-variant-ligatures:normal;font-variant-caps:normal;font-variant-numeric:normal;font-variant-east-asian:normal;fill:#000;stroke-width:21.9831" x="2845.136" y="-1262.239">P</tspan></text></svg>