<?xml version="1.0" encoding="UTF-8" standalone="no"?>
<svg
   id="Layer_1"
   data-name="Layer 1"
   viewBox="0 0 120.00377 359.57943"
   width="167.70456"
   height="304.63553"
   class="illustration styles_illustrationTablet__1DWOa"
   version="1.1"
   sodipodi:docname="SuperMan - Copy.svg"
   inkscape:version="1.1.1 (3bf5ae0d25, 2021-09-20)"
   xmlns:inkscape="http://www.inkscape.org/namespaces/inkscape"
   xmlns:sodipodi="http://sodipodi.sourceforge.net/DTD/sodipodi-0.dtd"
   xmlns:xlink="http://www.w3.org/1999/xlink"
   xmlns="http://www.w3.org/2000/svg"
   xmlns:svg="http://www.w3.org/2000/svg"
   xmlns:rdf="http://www.w3.org/1999/02/22-rdf-syntax-ns#"
   xmlns:cc="http://creativecommons.org/ns#"
   xmlns:dc="http://purl.org/dc/elements/1.1/">
  <sodipodi:namedview
     id="namedview161"
     pagecolor="#ffffff"
     bordercolor="#666666"
     borderopacity="1.0"
     inkscape:pageshadow="2"
     inkscape:pageopacity="0.0"
     inkscape:pagecheckerboard="0"
     showgrid="false"
     fit-margin-top="0"
     fit-margin-left="0"
     fit-margin-right="0"
     fit-margin-bottom="0"
     inkscape:zoom="2.4444444"
     inkscape:cx="-18.409091"
     inkscape:cy="150.13636"
     inkscape:window-width="1920"
     inkscape:window-height="986"
     inkscape:window-x="-11"
     inkscape:window-y="-11"
     inkscape:window-maximized="1"
     inkscape:current-layer="Layer_1" />
  <defs
     id="defs104">
    <linearGradient
       id="linear-gradient"
       x1="99.57"
       y1="139.41"
       x2="288.04999"
       y2="139.41"
       gradientUnits="userSpaceOnUse">
      <stop
         offset="0"
         stop-opacity="0"
         id="stop86" />
      <stop
         offset="0.99"
         id="stop88" />
    </linearGradient>
    <linearGradient
       id="linear-gradient-2"
       x1="137.19"
       y1="173.66"
       x2="272.37"
       y2="119.11"
       xlink:href="#linear-gradient"
       gradientTransform="translate(-137.19521,-3.3685426)" />
    <linearGradient
       id="linear-gradient-3"
       x1="243.3"
       y1="63.950001"
       x2="242.74001"
       y2="14.57"
       xlink:href="#linear-gradient"
       gradientTransform="translate(-137.19521,-3.3685426)" />
    <linearGradient
       id="linear-gradient-4"
       x1="210.03999"
       y1="61.259998"
       x2="206.17"
       y2="62.389999"
       xlink:href="#linear-gradient"
       gradientTransform="translate(-137.19521,-3.3685426)" />
    <linearGradient
       id="linear-gradient-5"
       x1="255.92999"
       y1="58.709999"
       x2="270.31"
       y2="58.709999"
       xlink:href="#linear-gradient"
       gradientTransform="translate(-137.19521,-3.3685426)" />
    <linearGradient
       id="linear-gradient-6"
       x1="187.46001"
       y1="126.7"
       x2="220.89"
       y2="135.25999"
       xlink:href="#linear-gradient"
       gradientTransform="translate(-137.19521,-3.3685426)" />
    <linearGradient
       id="linear-gradient-7"
       x1="211.55"
       y1="143.84"
       x2="261.23999"
       y2="156.57001"
       xlink:href="#linear-gradient"
       gradientTransform="translate(-137.19521,-3.3685426)" />
    <linearGradient
       id="linear-gradient-8"
       x1="262.97"
       y1="159.92"
       x2="262.97"
       y2="159.92"
       xlink:href="#linear-gradient"
       gradientTransform="translate(-137.19521,-3.3685426)" />
    <linearGradient
       id="linear-gradient-9"
       x1="246.46001"
       y1="121.3"
       x2="275.89001"
       y2="121.3"
       xlink:href="#linear-gradient"
       gradientTransform="translate(-137.19521,-3.3685426)" />
    <linearGradient
       id="linear-gradient-10"
       x1="227.82001"
       y1="157.45"
       x2="241.81"
       y2="304.32999"
       xlink:href="#linear-gradient"
       gradientTransform="translate(-137.19521,-3.3685426)" />
    <linearGradient
       id="linear-gradient-11"
       x1="158.61"
       y1="251.48"
       x2="240.86"
       y2="230.50999"
       gradientTransform="matrix(1,0.07,-0.07,1,-90.885203,55.621457)"
       xlink:href="#linear-gradient" />
    <linearGradient
       id="linear-gradient-12"
       x1="322.79001"
       y1="341.98999"
       x2="256.88"
       y2="346.39001"
       gradientTransform="matrix(1,-0.04,0.04,1,-161.39521,-30.468543)"
       xlink:href="#linear-gradient" />
    <linearGradient
       id="linear-gradient-13"
       x1="184.35001"
       y1="45.110001"
       x2="200.78999"
       y2="156.7"
       xlink:href="#linear-gradient" />
    <linearGradient
       id="linear-gradient-14"
       x1="230.39"
       y1="56.759998"
       x2="183.72"
       y2="60.869999"
       xlink:href="#linear-gradient"
       gradientTransform="translate(-137.19521,-3.3685426)" />
    <linearGradient
       inkscape:collect="always"
       xlink:href="#linear-gradient"
       id="linearGradient504"
       gradientUnits="userSpaceOnUse"
       x1="99.57"
       y1="139.41"
       x2="288.04999"
       y2="139.41"
       gradientTransform="translate(-137.19521,-3.3685426)" />
  </defs>
  <title
     id="title106">Super Man</title>
  <path
     d="m 151.8948,86.521457 c -0.23,9.33 -1,18.670003 -3.42,27.630003 -0.33,1.2 -0.68,2.39 -1.06,3.56 -9.61,30.14 -35.55,51.86 -49.609999,80.26 a 109.71,109.71 0 0 0 -7.52,19.77 1.35,1.35 0 0 0 -0.09,0.33 113,113 0 0 0 -4,27.44 8.05,8.05 0 0 1 -1,0.17 c -7,1.1 -13.88,-3.25 -19.26,-8.18 -5.63,-5.17 -10.74,-11.36 -17.67,-14.26 -10,-4.17 -21.68,-0.73 -31.69,-4.81 -12.2800004,-5 -18.3000004,-20 -18.7000004,-33.81 -0.2,-6.84 0.47,-14.31 -3.34,-19.81 -2.83,-4.08 -7.4899996,-6.15 -11.5699996,-8.81 -12.25,-8.07 -19.72,-23 -20.55,-38.09 a 59.44,59.44 0 0 1 1.92,-18.280003 69.18,69.18 0 0 1 11.59,-23.89 c 3.4,-4.52 7.32,-8.65 10,-13.68 a 19.79,19.79 0 0 0 1.36,-3 c 1.69,-4.37 2.18,-9.29 0.33,-13.51 -1,-2.2 -2.58,-4.3 -2.7,-6.7 a 2.06,2.06 0 0 1 0,-0.36 c 0,-3.74 3.61,-6.22 6.7799996,-7.91 12.23,-6.46 27.0000004,-11.66 39.1600004,-5.11 7.6,4.1 12.87,12.24 20.81,15.63 a 33.19,33.19 0 0 0 7.64,2 c 2.16,0.36 4.33,0.67 6.47,1.16 7.95,1.79 12.25,6.31 18.27,10.66 0.51,0.37 1,0.75 1.58,1.11 6.42,4.34 18.499999,1.94 25.229999,-0.58 6.46,-2.39 12.39,-7.09 19.24,-7.24 8,-0.2 15.08,6.12 18.43,13.7 3.35,7.58 3.59,16.25 3.37,24.61 z"
     fill="#68e1fd"
     id="path110" />
  <path
     d="m 150.8048,90.281457 c -0.24,9.25 -1,18.530003 -3.39,27.430003 0,0.07 0,0.13 -0.05,0.2 -8.61,32 -36.06,54.32 -50.679999,83.82 a 110,110 0 0 0 -6.42,16 2.23,2.23 0 0 0 -0.09,0.32 112.81,112.81 0 0 0 -4.93,27.61 c -7,1.1 -13.86,-3.25 -19.26,-8.18 -5.61,-5.18 -10.73,-11.35 -17.67,-14.26 -10,-4.17 -21.67,-0.72 -31.68,-4.81 -12.2800004,-5 -18.3100004,-20 -18.7000004,-33.82 -0.19,-6.82 0.48,-14.3 -3.35,-19.8 -2.82,-4.09 -7.4899996,-6.14 -11.5499996,-8.82 -12.25,-8.07 -19.73,-23 -20.57,-38.08 a 59.15,59.15 0 0 1 1.88,-18.260003 68.94,68.94 0 0 1 10.46,-20.13 c 3.39,-4.51 7.3,-8.65 10,-13.67 a 24.76,24.76 0 0 0 2.44,-6.75 16.21,16.21 0 0 0 -0.77,-9.75 c -1,-2.33 -2.74,-4.5 -2.72,-7.06 a 6,6 0 0 1 1.12,-3.4 15.39,15.39 0 0 1 5.6599996,-4.53 c 12.22,-6.44 27.0000004,-11.64 39.1600004,-5.09 7.61,4.1 12.86,12.24 20.81,15.62 4.46,1.9 9.4,2.08 14.1,3.16 8.63,2 13,7.11 19.85,11.77 6.42,4.34 18.499999,2 25.229999,-0.58 6.46,-2.41 12.39,-7.09 19.24,-7.25 8,-0.18 15.08,6.14 18.44,13.72 3.36,7.58 3.65,16.23 3.44,24.59 z"
     fill="url(#linear-gradient)"
     id="path112"
     style="fill:url(#linearGradient504)" />
  <path
     d="m 20.024801,75.861457 c -8.85,-4 -18.7700004,-4.34 -28.4100004,-4.62 -2.3299996,-0.06 -4.7599996,-0.1 -6.8399996,1 a 14.26,14.26 0 0 0 -4.16,3.93 c -10.1,12.54 -20.08,27.090003 -19.57,43.500003 a 11.38,11.38 0 0 0 0.88,4.57 c 1,2 2.8,3.28 4.61,4.44 a 102.19,102.19 0 0 0 71.57,14.81 c 13.35,-2.24 26.39,-7.19 39.91,-7 -0.38,9.68 -9.89,15.86 -18.52,19.33 a 135,135 0 0 1 -56.1500004,9.64 l -3.88000002,41.36 77.34000042,-27.55 a 112.45,112.45 0 0 0 -9.52,59.91 c 0.18,1.51 0.48,3.2 1.67,4.07 1.19,0.87 2.87,0.58 4.33,0.23 9.77,-2.38 20.17,-5.11 26.999999,-12.85 4,-4.53 6.32,-10.38 7.87,-16.3 3.65,-14 3.3,-28.78 6.6,-42.84 3.13,-13.33 9.44,-25.61 13,-38.83 6.77,-25.33 -5.14,-56.000003 -34.409999,-52.160003 -12.54,1.63 -23.87,10.18 -36.45,11.48 -14.67,1.52 -24.37,-10.47 -36.87,-16.12 z"
     fill="url(#linear-gradient-2)"
     id="path114"
     style="fill:url(#linear-gradient-2)" />
  <path
     d="m 158.21479,144.99146 c -1.29,9.58 -4.24999,18.82 -7.47999,27.89 -0.55,1.57 -1.2,3.25 -2.58,4.11 -2,1.27 -4.74,0.15 -6.13,-1.8 -1.39,-1.95 -1.76,-4.5 -2,-6.92 a 125.07,125.07 0 0 1 2.86,-42.47 7.59,7.59 0 0 0 0.31,-3.68 8.65,8.65 0 0 0 -2.08,-3.18 19.88,19.88 0 0 1 -4.38,-10.66 c -5.7,5.64 -11.62,11.67 -13.86,19.54 -2.69,9.57 0.6,19.68 2.58,29.45 6.18,30.38 -0.5,62.63 7.08,92.66 2.07,8.21 4.53,34.26 3.62,34.64 -4.43,1.8 -7.07,4 -11.79,4.51 a 4.89,4.89 0 0 1 -3,-0.3 c -1.26,-0.71 -2.46,-5.88 -2.81,-7.31 -1.69,-7 -17,-49.27 -12.14,-40.22 7.9,14.82 8.22,44.26 8.22,46.26 0,3.05 -19.049999,3.32 -21.809999,0.83 -2.76,-2.49 -5.35,-36 -6.42,-39.94 -1.07,-3.94 -1.78,-8.79 -3.76,-12.36 -9.3,-16.79 -14.32,-36.8 -12.34,-56.1 q 0.78,-7.59 1.57,-15.17 c 0.79,-7.73 1.57,-15.75 -0.79,-23.13 -1,-3.06 -2.46,-10.48 -2.46,-10.76 a 104.19,104.19 0 0 0 -11.61,31.56 4.39,4.39 0 0 1 -1.11,2.63 2,2 0 0 1 -0.77,0.46 5.87,5.87 0 0 1 -1.83,0.25 l -8.23,0.27 c -2.62,-20.6 2.7,-41.33 8.77,-61.09 a 108,108 0 0 0 4.1,-16.000003 c 0.74,-5 0.75,-10.15 2.34,-14.9 3.36,-10 11.26,-13.82 20.58,-14.19 a 305.27,305.27 0 0 0 34.999999,-3.51 c 4.81,-0.76 9.66,-1.64 14.47,-1 9.65,1.25 17.95,8.6 22.32,17.68 5.32999,11.07 3.30999,21.7 4.40999,33.350003 1.24,12.89 2.91,25.62 1.15,38.6 z"
     fill="#68e1fd"
     id="path116" />
  <path
     d="m 45.234801,181.08146 c -0.38,2 -1,4 -0.51,6 0.61,2.77 3,4.63 5.32,6.14 a 9.22,9.22 0 0 0 3.21,1.53 c 2.33,0.45 4.71,-1 6.19,-2.89 a 21.31,21.31 0 0 0 3,-6.74 6.92,6.92 0 0 0 0.47,-3 c -0.31,-2.2 -2.53,-3.46 -3.74,-5.29 -2.13,-3.24 -0.85,-7.7 -1.76,-11.52 a 2.66,2.66 0 0 0 -0.7,-1.42 2.82,2.82 0 0 0 -1.75,-0.52 c -3.51,-0.21 -8.42,-1 -9.23,3.5 -0.81,4.5 0.39,9.51 -0.5,14.21 z"
     fill="#f6ad82"
     id="path118" />
  <path
     d="m 133.3248,181.40146 c -1.35,1.12 -2.91,1.95 -4.23,3.12 a 6.34,6.34 0 0 0 -2.42,4.59 16.21,16.21 0 0 0 1,3.89 c 0.62,2.34 0.4,5 1.83,6.95 1.84,2.45 5.46,2.32 8.26,1.26 4.19,-1.6 8,-5.18 8.62,-9.8 0.27,-1.95 0,-3.95 0.22,-5.9 0.31,-2.35 1.44,-4.5 2.07,-6.78 1.22,-4.45 -2.13,-10.94 -7.33,-8.6 -1.9,0.85 -2.5,3.42 -3.39,5.16 a 18.83,18.83 0 0 1 -4.63,6.11 z"
     fill="#f6ad82"
     id="path120" />
  <path
     d="m 117.8048,47.851457 c 1.49,1.34 3.47,1.89 5.31,2.62 a 26,26 0 0 1 6.88,4 1.52,1.52 0 0 1 0.63,0.85 c 0.13,0.73 -0.72,1.19 -1.4,1.39 a 166.06,166.06 0 0 1 -21.15,4.38 c -9.999999,1.58 -20.449999,3 -30.059999,-0.37 -0.44,-0.16 -1,-0.48 -0.87,-1 a 1,1 0 0 1 0.35,-0.49 23.24,23.24 0 0 1 5.5,-3.25 c 2.54,-1.25 7,-1.88 9.18,-3.76 5.85,-5.11 2.15,-15 2.56,-15.66 1.18,-2 3.62,-2.68 5.839999,-3 a 20,20 0 0 1 8.11,0.44 c 2.3,0.67 6,2.35 6.29,5.12 0.22,3.28 0.25,6.45 2.83,8.73 z"
     fill="#f6ad82"
     id="path122" />
  <path
     d="m 98.434801,42.891457 c 1.33,2.64 2.929999,5.35 5.499999,6.64 2.29,1.14 5,1 7.45,0.47 a 4.67,4.67 0 0 0 3.09,-1.54 5.49,5.49 0 0 0 0.66,-3.22 v -9.08 c -3.67,0.86 -7.42,1.72 -11.17,1.4 -1.5,-0.13 -5.849999,-1.5 -6.999999,-0.15 -1.15,1.35 0.84,4.27 1.47,5.48 z"
     fill="url(#linear-gradient-3)"
     id="path124"
     style="fill:url(#linear-gradient-3)" />
  <path
     d="m 90.114801,27.631457 c 0.35,0.68 0.9,1.25 1.2,2 0.3,0.75 0.32,1.4 0.6,2.06 0.28,0.66 0.95,1.23 1.6,1 a 12.28,12.28 0 0 0 2.42,7.25 9.36,9.36 0 0 0 6.369999,3.66 c 2.36,0.22 4.68,-0.58 6.93,-1.37 l 4.85,-1.7 a 3.37,3.37 0 0 0 1.31,-0.69 3.74,3.74 0 0 0 0.81,-2.21 l 0.83,-5.27 a 1.45,1.45 0 0 1 0.23,-0.68 1.84,1.84 0 0 1 0.85,-0.45 c 1.25,-0.48 1.87,-1.94 2.2,-3.29 a 3.58,3.58 0 0 0 -0.16,-2.79 c -0.53,-0.8 -1.93,-0.89 -2.23,0 a 23.88,23.88 0 0 0 -1.71,-10.07 11.66,11.66 0 0 0 -7.1,-6.6599996 15.09,15.09 0 0 0 -6.1,-0.08 14,14 0 0 0 -4.089999,1.08 c -1.29,0.6199996 -3.38,-1 -4,0.37 a 35.93,35.93 0 0 0 -2,4.2299996 c -0.24,1.7 -0.21,5.17 -0.46,6.88 -0.18,1.25 2,3.09 1.32,4.1 -0.68,1.01 -5.55,-1 -3.67,2.63 z"
     fill="#f6ad82"
     id="path126" />
  <path
     d="m 91.514801,23.461457 a 59.73,59.73 0 0 1 -0.6,-8.87 10.59,10.59 0 0 1 0.81,-4.6899996 10.88,10.88 0 0 1 3.17,-3.38 l 2.63,-2.09 a 22.63,22.63 0 0 1 6.109999,-3.87000008 7.36,7.36 0 0 1 6.88,0.66000008 c 1.95,1.46 2.91,4.13 5,5.35 0.63,0.36 1.35,0.58 2,1 a 5.86,5.86 0 0 1 2.38,3.3799996 15.06,15.06 0 0 1 0.49,4.24 q 0,3.09 -0.24,6.15 c -0.18,2 -0.74,4.33 -2.54,5 l -0.26,-3.32 a 30.29,30.29 0 0 0 -1,-6.65 9.78,9.78 0 0 0 -3.68,-5.36 5.34,5.34 0 0 0 -5.53,-0.37 1.34,1.34 0 0 0 -0.6,0.6 2.36,2.36 0 0 0 -0.06,0.84 3.41,3.41 0 0 1 -1.91,3.14 3.14,3.14 0 0 1 -3.49,-0.7 c -0.46,-0.49 -0.61,-1.54 0,-1.65 a 1.84,1.84 0 0 0 2.49,0.95 2.3,2.3 0 0 0 1,-2.67 2.5,2.5 0 0 0 -2.31,-1.6499996 5.1,5.1 0 0 0 -2.469999,0.9099996 l -3.06,1.78 a 6,6 0 0 0 -1.5,1.1 c -1,1.15 -1,2.9 -1,4.48 l 0.08,4.29 c 0,0.94 0.44,3 0,3.82 -1.06,2.02 -2.65,-1.43 -2.79,-2.42 z"
     fill="#404040"
     id="path128" />
  <path
     d="m 84.394801,55.491457 a 12.41,12.41 0 0 0 2.06,4.14 c 0.83,1.08 1.89,2.13 2,3.52 a 0.88,0.88 0 0 1 -0.08,0.53 0.84,0.84 0 0 1 -0.74,0.31 3.14,3.14 0 0 1 -2.1,-0.78 c 0.19,0.58 -0.54,1 -1.12,1 -2.7,0.13 -4.9,-2.27 -7.52,-3 a 14.72,14.72 0 0 1 -2.37,-0.61 7.2,7.2 0 0 1 -2.3,-2 l -2.08,-2.43 a 1.53,1.53 0 0 1 -0.41,-0.69 c -0.15,-0.75 0.68,-1.3 1.39,-1.47 1.6,-0.4 -3,-5.08 -0.72,-5.28 1.56,-0.14 10.58,3.82 11.91,4.69 0.66,0.43 1.18,1.05 1.81,1.53 a 2.54,2.54 0 0 0 2.16,0.63"
     fill="#68e1fd"
     id="path130" />
  <path
     d="m 68.804801,56.681457 c -0.46,2.14 0,4.53 -1,6.44 0.37,0.1 0.72,-0.18 1,-0.44 a 12.42,12.42 0 0 1 5,-2.65 5,5 0 0 1 -2.15,-1.92 8.27,8.27 0 0 1 -1.85,-3.17 c -0.64,0.26 -0.9,1.1 -1,1.74 z"
     fill="url(#linear-gradient-4)"
     id="path132"
     style="fill:url(#linear-gradient-4)" />
  <path
     d="m 131.3148,55.631457 c 0.11,0.37 -0.94,0.92 -1.1,1.27 -0.31,0.72 -1.24,0.77 -2,0.84 -2.88,0.26 -5.31,2.26 -7.59,4.13 -0.64,0.52 -1.5,1.07 -2.21,0.65 a 1.57,1.57 0 0 1 -0.69,-1.1 6.27,6.27 0 0 1 0.93,-4 c 1,-2 3.22,-7.21 3.64,-7.3 a 8.94,8.94 0 0 1 3.92,0.14 c 1.07,0.48 0.56,0.57 0.69,1.52 0.13,0.95 0.94,1.15 1.7,1.7 0.76,0.55 2.44,1.15 2.71,2.15 z"
     fill="#68e1fd"
     id="path134" />
  <path
     d="m 122.1048,52.121457 q -1.68,3.38 -3.14,6.87 c -0.2,0.48 -0.38,1.1 0,1.49 0.38,0.39 1.05,0.2 1.55,-0.07 q 2.43,-1.29 4.76,-2.78 a 2.45,2.45 0 0 0 1,-1 c 0.41,-0.91 -0.3,-2 0,-3 a 2.43,2.43 0 0 1 1.56,-1.44 10.18,10.18 0 0 1 5.37,-0.31 6.68,6.68 0 0 0 -5,-2 c -1.33,0.07 -2.61,0.47 -3.94,0.49 -1.21,0.11 -1.63,0.69 -2.16,1.75 z"
     fill="url(#linear-gradient-5)"
     id="path136"
     style="fill:url(#linear-gradient-5)" />
  <path
     d="m 68.594801,130.88146 a 99.28,99.28 0 0 0 -11.27,30.84 4.41,4.41 0 0 1 -1.1,2.63 2.15,2.15 0 0 1 -0.78,0.46 3.26,3.26 0 0 1 -2.17,-1.27 c -1.08,-1.5 -0.79,-3.61 -0.45,-5.45 q 3.1,-16.17 7,-32.13 a 22,22 0 0 1 1.71,-5.16 20.33,20.33 0 0 0 1,-2 10.27,10.27 0 0 0 0.27,-4.17 92.55,92.55 0 0 1 2.73,-27.550003 c 0.34,4.93 0.67,9.88 1.48,14.730003 0.84,5.15 2.19,10.19 2.74,15.37 0.55,5.18 -1.16,13.98 -1.16,13.7 z"
     fill="url(#linear-gradient-6)"
     id="path138"
     style="fill:url(#linear-gradient-6)" />
  <path
     d="m 73.184801,145.05146 c 0,0 12.05,-0.72 21.33,-1.45 9.279999,-0.73 17.849999,-0.49 21.999999,-0.73 a 50.42,50.42 0 0 0 6.5,-0.73 l 1.85,7.78 c 0,0 -9.74,1.21 -12.52,1.21 -2.78,0 -36.169999,2.43 -39.419999,-0.49 z"
     fill="url(#linear-gradient-7)"
     id="path140"
     style="fill:url(#linear-gradient-7)" />
  <path
     d="M 125.8048,156.55146"
     fill="url(#linear-gradient-8)"
     id="path142"
     style="fill:url(#linear-gradient-8)" />
  <path
     d="m 130.4948,92.681457 c -2.53,4.21 -5.1,8.470003 -8.55,11.880003 -3.45,3.41 -7.94,5.95 -12.68,5.95 2.34,0.42 3.2,3.56 2.84,6 -0.36,2.44 -1.43,4.89 -1,7.33 a 36.12,36.12 0 0 0 1.5,4.11 c 1.16,3.65 -0.11,7.63 0.12,11.46 a 3.47,3.47 0 0 0 0.61,2 3.62,3.62 0 0 0 2.33,1 l 3.86,0.61 a 3.62,3.62 0 0 0 2.26,-0.13 3.79,3.79 0 0 0 1.12,-1.1 l 9.25,-11.89 a 37.12,37.12 0 0 0 4.85,-7.27 c 2.07,-4.59 2.47,-10.29 -0.11,-14.68 -2.86,-4.87 -4.54,-9.890003 -6.4,-15.270003 z"
     fill="url(#linear-gradient-9)"
     id="path144"
     style="fill:url(#linear-gradient-9)" />
  <path
     d="m 112.0348,263.68146 c 0,0 -13.999999,-38.34 -16.219999,-52 -2.22,-13.66 -2.86,-27.33 -2.86,-27.33 0,0 -5.72,-9 -6.36,-13.67 -0.64,-4.67 -4.13,20.67 -4.13,20.67 0,0 17.49,47.34 17.49,55.67 0,8.33 6.999999,42 6.999999,42 0,0 6.72,0.65 7.65,-1.51 0.93,-2.16 -2.57,-23.83 -2.57,-23.83 z"
     fill="url(#linear-gradient-10)"
     id="path146"
     style="fill:url(#linear-gradient-10)" />
  <path
     d="m 114.2648,264.87146 -19.689999,-4.45 c 0,0 -4.36,5.93 -7,3.22 l 5.89,32.66 3.07,31.07 -5.62,26.26 c 0,0 -2.19,7.79 5.07,5.54 7.259999,-2.25 13.569999,-14.4 15.429999,-17.54 l 4.84,-6.65 -3.17,-17.11 z"
     fill="#68e1fd"
     id="path148" />
  <path
     d="m 114.2648,264.87146 -19.689999,-4.45 c 0,0 -4.36,5.93 -7,3.22 l 5.89,32.66 3.07,31.07 -5.62,26.26 c 0,0 -2.19,7.79 5.07,5.54 7.259999,-2.25 13.569999,-14.4 15.429999,-17.54 l 4.84,-6.65 -3.17,-17.11 z"
     fill="url(#linear-gradient-11)"
     id="path150"
     style="fill:url(#linear-gradient-11)" />
  <path
     d="m 109.3448,265.21146 17.81,-9.86 c 0,0 5.72,4.48 7.52,1.14 l 2.74,33.14 5,30.79 12.22,23.68 c 0,0 4.10999,6.89 -3.45,6.77 -7.56,-0.12 -16.78,-10 -19.38,-12.52 l -6.37,-5 -1.36,-17.37 z"
     fill="#68e1fd"
     id="path152" />
  <path
     d="m 109.3448,265.21146 17.81,-9.86 c 0,0 5.72,4.48 7.52,1.14 l 2.74,33.14 5,30.79 12.22,23.68 c 0,0 4.10999,6.89 -3.45,6.77 -7.56,-0.12 -16.78,-10 -19.38,-12.52 l -6.37,-5 -1.36,-17.37 z"
     fill="url(#linear-gradient-12)"
     id="path154"
     style="fill:url(#linear-gradient-12)" />
  <polygon
     points="208.44,75.33 183.07,100.87 169.45,77.2 "
     fill="url(#linear-gradient-13)"
     id="polygon156"
     style="fill:url(#linear-gradient-13)"
     transform="translate(-93.035203,-1.6085426)" />
  <path
     d="m 87.054801,67.151457 c -0.91,-0.09 -2.4,-2.1 -3,-2.77 -1.92,-2.29 -3,-5.17 -4.59,-7.66 -7.66,-11.77 -13.66,-10.59 -20.2,-13.6 2.16,0.36 4.33,0.67 6.47,1.16 7.95,1.79 12.25,6.31 18.27,10.66 a 11.08,11.08 0 0 1 1.59,3 q 1.29,3.12 2.56,6.26 c 0.44,1.08 0.71,3.13 -1.1,2.95 z"
     fill="url(#linear-gradient-14)"
     id="path158"
     style="fill:url(#linear-gradient-14)" />
  <metadata
     id="metadata502">
    <rdf:RDF>
      <cc:Work
         rdf:about="">
        <dc:title>Super Man</dc:title>
      </cc:Work>
    </rdf:RDF>
  </metadata>
</svg>
